<svg xmlns="http://www.w3.org/2000/svg" version="1.1" viewBox="0 -0.176457479596138 416.7320556640625 463.17645263671875" width="417.00" height="464.00">
<g stroke-width="2.00" fill="none" stroke-linecap="butt">
<path stroke="#983173" stroke-opacity="0.992" d="&#10;  M 87.99 91.97&#10;  Q 87.82 92.88 88.73 93.55&#10;  C 102.74 103.95 110.02 119.74 110.61 137.33&#10;  Q 111.18 154.74 102.68 168.98&#10;  Q 94.01 183.53 78.50 190.79&#10;  Q 56.89 200.90 31.35 191.07"/>
<path stroke="#258591" stroke-opacity="0.992" d="&#10;  M 387.23 189.78&#10;  Q 385.21 190.09 380.19 191.97&#10;  Q 368.22 196.46 354.22 194.59&#10;  Q 324.93 190.66 311.64 164.06&#10;  Q 305.74 152.27 305.96 138.74&#10;  Q 306.40 110.66 329.15 92.06"/>
<path stroke="#414f72" stroke-opacity="0.992" d="&#10;  M 207.50 164.05&#10;  Q 207.65 164.11 207.75 164.20&#10;  A 0.15 0.15 0.0 0 1 207.72 164.44&#10;  Q 181.17 179.97 146.39 201.37&#10;  Q 124.66 214.74 101.03 229.51&#10;  Q 99.35 230.56 97.11 231.66&#10;  Q 96.76 231.84 96.62 232.10&#10;  Q 96.46 232.41 96.44 232.77"/>
<path stroke="#b07f4f" stroke-opacity="0.992" d="&#10;  M 96.44 232.77&#10;  L 95.76 232.80"/>
<path stroke="#8c717b" stroke-opacity="0.992" d="&#10;  M 321.91 232.27&#10;  Q 321.07 232.52 320.81 232.21"/>
<path stroke="#226b73" stroke-opacity="0.992" d="&#10;  M 320.81 232.21&#10;  L 209.50 164.68"/>
<path stroke="#258591" stroke-opacity="0.992" d="&#10;  M 209.50 164.68&#10;  Q 209.19 164.39 209.42 163.44"/>
<path stroke="#194c57" stroke-opacity="0.992" d="&#10;  M 209.50 164.68&#10;  Q 208.41 164.54 208.41 165.25&#10;  Q 208.32 201.37 208.43 237.50&#10;  Q 208.53 270.67 208.21 296.75&#10;  Q 208.19 298.24 207.47 299.92"/>
<path stroke="#8a9653" stroke-opacity="0.992" d="&#10;  M 207.47 299.92&#10;  L 96.44 232.77"/>
<path stroke="#803741" stroke-opacity="0.992" d="&#10;  M 320.81 232.21&#10;  Q 320.78 232.38 320.73 232.50&#10;  Q 320.69 232.62 320.52 232.71&#10;  C 283.00 254.70 246.12 277.70 208.94 300.24&#10;  Q 208.51 300.50 207.79 300.28"/>
<path stroke="#887c35" stroke-opacity="0.992" d="&#10;  M 207.79 300.28&#10;  Q 207.60 300.14 207.47 299.92"/>
<path stroke="#f05b49" stroke-opacity="0.992" d="&#10;  M 386.39 273.68&#10;  Q 385.99 274.59 384.97 274.15&#10;  C 377.08 270.76 370.93 268.71 362.73 268.75&#10;  C 342.52 268.83 322.18 279.61 312.13 297.66&#10;  Q 300.90 317.83 306.96 340.54&#10;  Q 311.61 357.95 328.38 371.60"/>
<path stroke="#f2823d" stroke-opacity="0.992" d="&#10;  M 207.98 300.81&#10;  Q 208.09 300.65 207.79 300.28"/>
<path stroke="#f7b932" stroke-opacity="0.992" d="&#10;  M 88.38 372.34&#10;  Q 88.41 371.72 88.17 371.22&#10;  A 0.58 0.57 59.8 0 1 88.36 370.49&#10;  Q 104.19 359.38 109.16 340.66&#10;  C 117.00 311.12 102.37 281.88 73.30 271.76&#10;  Q 51.91 264.31 31.82 274.33&#10;  A 1.18 1.17 -54.3 0 1 31.17 274.44&#10;  Q 30.34 274.34 30.45 273.78"/>
</g>
<ellipse fill="#334866" fill-opacity="0.992" cx="0.00" cy="0.00" transform="translate(208.38,57.29) rotate(-91.0)" rx="56.50" ry="55.87"/>
<path fill="#c82a77" fill-opacity="0.992" d="&#10;  M 87.99 91.97&#10;  Q 87.82 92.88 88.73 93.55&#10;  C 102.74 103.95 110.02 119.74 110.61 137.33&#10;  Q 111.18 154.74 102.68 168.98&#10;  Q 94.01 183.53 78.50 190.79&#10;  Q 56.89 200.90 31.35 191.07&#10;  Q 26.20 187.37 20.91 182.84&#10;  Q 2.70 167.23 0.00 143.27&#10;  L 0.00 133.40&#10;  Q 1.80 119.73 8.61 108.87&#10;  Q 20.16 90.45 41.06 84.68&#10;  Q 47.86 82.81 55.09 82.82&#10;  Q 63.15 82.83 69.17 84.37&#10;  Q 77.71 86.57 87.99 91.97&#10;  Z"/>
<path fill="#1b6675" fill-opacity="0.992" d="&#10;  M 387.23 189.78&#10;  Q 385.21 190.09 380.19 191.97&#10;  Q 368.22 196.46 354.22 194.59&#10;  Q 324.93 190.66 311.64 164.06&#10;  Q 305.74 152.27 305.96 138.74&#10;  Q 306.40 110.66 329.15 92.06&#10;  Q 333.97 88.72 340.33 86.54&#10;  Q 368.41 76.96 391.28 92.01&#10;  Q 401.62 98.81 407.58 108.08&#10;  Q 413.98 118.01 415.84 129.51&#10;  Q 416.83 135.66 416.41 143.48&#10;  Q 416.03 150.50 413.69 157.14&#10;  Q 408.39 172.17 395.67 182.91&#10;  Q 391.24 186.65 387.23 189.78&#10;  Z"/>
<path fill="#67376e" fill-opacity="0.992" d="&#10;  M 207.50 164.05&#10;  Q 207.65 164.11 207.75 164.20&#10;  A 0.15 0.15 0.0 0 1 207.72 164.44&#10;  Q 181.17 179.97 146.39 201.37&#10;  Q 124.66 214.74 101.03 229.51&#10;  Q 99.35 230.56 97.11 231.66&#10;  Q 96.76 231.84 96.62 232.10&#10;  Q 96.46 232.41 96.44 232.77&#10;  L 95.76 232.80&#10;  Q 94.91 230.36 92.43 229.61&#10;  A 1.87 1.78 -19.7 0 1 91.98 229.41&#10;  Q 67.74 214.72 43.65 199.81&#10;  C 39.39 197.17 35.40 194.14 31.35 191.07&#10;  Q 56.89 200.90 78.50 190.79&#10;  Q 94.01 183.53 102.68 168.98&#10;  Q 111.18 154.74 110.61 137.33&#10;  C 110.02 119.74 102.74 103.95 88.73 93.55&#10;  Q 87.82 92.88 87.99 91.97&#10;  Q 98.41 97.25 108.25 103.44&#10;  Q 109.35 104.13 110.14 104.61&#10;  Q 121.66 111.69 133.59 118.59&#10;  C 134.19 118.93 134.77 119.51 135.54 119.96&#10;  Q 145.79 126.03 158.79 133.94&#10;  Q 158.98 134.05 159.14 134.11&#10;  Q 159.34 134.17 159.46 134.25&#10;  Q 165.54 138.18 182.06 148.18&#10;  Q 190.87 153.51 207.50 164.05&#10;  Z"/>
<path fill="#2ea4ac" fill-opacity="0.992" d="&#10;  M 329.15 92.06&#10;  Q 306.40 110.66 305.96 138.74&#10;  Q 305.74 152.27 311.64 164.06&#10;  Q 324.93 190.66 354.22 194.59&#10;  Q 368.22 196.46 380.19 191.97&#10;  Q 385.21 190.09 387.23 189.78&#10;  Q 384.37 192.75 381.46 194.69&#10;  Q 372.12 200.94 366.41 204.41&#10;  Q 344.79 217.56 323.20 230.76&#10;  A 2.50 2.40 -87.1 0 0 322.49 231.43&#10;  L 321.91 232.27&#10;  Q 321.07 232.52 320.81 232.21&#10;  L 209.50 164.68&#10;  Q 209.19 164.39 209.42 163.44&#10;  Q 240.96 144.42 272.37 125.13&#10;  Q 284.40 117.75 315.62 99.39&#10;  Q 315.68 99.35 320.28 96.40&#10;  Q 324.19 93.89 329.15 92.06&#10;  Z"/>
<path fill="#1b6675" fill-opacity="0.992" d="&#10;  M 209.42 163.44&#10;  Q 209.19 164.39 209.50 164.68&#10;  Q 208.41 164.54 208.41 165.25&#10;  Q 208.32 201.37 208.43 237.50&#10;  Q 208.53 270.67 208.21 296.75&#10;  Q 208.19 298.24 207.47 299.92&#10;  L 96.44 232.77&#10;  Q 96.46 232.41 96.62 232.10&#10;  Q 96.76 231.84 97.11 231.66&#10;  Q 99.35 230.56 101.03 229.51&#10;  Q 124.66 214.74 146.39 201.37&#10;  Q 181.17 179.97 207.72 164.44&#10;  A 0.15 0.15 0.0 0 0 207.75 164.20&#10;  Q 207.65 164.11 207.50 164.05&#10;  Q 208.52 164.02 209.42 163.44&#10;  Z"/>
<path fill="#163139" fill-opacity="0.992" d="&#10;  M 209.50 164.68&#10;  L 320.81 232.21&#10;  Q 320.78 232.38 320.73 232.50&#10;  Q 320.69 232.62 320.52 232.71&#10;  C 283.00 254.70 246.12 277.70 208.94 300.24&#10;  Q 208.51 300.50 207.79 300.28&#10;  Q 207.60 300.14 207.47 299.92&#10;  Q 208.19 298.24 208.21 296.75&#10;  Q 208.53 270.67 208.43 237.50&#10;  Q 208.32 201.37 208.41 165.25&#10;  Q 208.41 164.54 209.50 164.68&#10;  Z"/>
<path fill="#ea3d49" fill-opacity="0.992" d="&#10;  M 321.91 232.27&#10;  L 321.82 232.61&#10;  A 0.37 0.37 0.0 0 0 321.98 233.03&#10;  Q 332.45 239.56 343.00 245.97&#10;  Q 359.79 256.18 376.32 266.69&#10;  Q 381.49 269.98 386.39 273.68&#10;  Q 385.99 274.59 384.97 274.15&#10;  C 377.08 270.76 370.93 268.71 362.73 268.75&#10;  C 342.52 268.83 322.18 279.61 312.13 297.66&#10;  Q 300.90 317.83 306.96 340.54&#10;  Q 311.61 357.95 328.38 371.60&#10;  Q 324.56 370.18 319.67 367.33&#10;  Q 287.26 348.41 255.28 328.79&#10;  Q 233.47 315.41 211.57 302.20&#10;  Q 210.50 301.55 207.98 300.81&#10;  Q 208.09 300.65 207.79 300.28&#10;  Q 208.51 300.50 208.94 300.24&#10;  C 246.12 277.70 283.00 254.70 320.52 232.71&#10;  Q 320.69 232.62 320.73 232.50&#10;  Q 320.78 232.38 320.81 232.21&#10;  Q 321.07 232.52 321.91 232.27&#10;  Z"/>
<path fill="#f9c630" fill-opacity="0.992" d="&#10;  M 96.44 232.77&#10;  L 207.47 299.92&#10;  Q 207.60 300.14 207.79 300.28&#10;  Q 208.09 300.65 207.98 300.81&#10;  Q 183.19 315.62 158.64 330.82&#10;  C 144.12 339.82 129.83 347.92 115.58 356.73&#10;  Q 102.21 364.99 88.38 372.34&#10;  Q 88.41 371.72 88.17 371.22&#10;  A 0.58 0.57 59.8 0 1 88.36 370.49&#10;  Q 104.19 359.38 109.16 340.66&#10;  C 117.00 311.12 102.37 281.88 73.30 271.76&#10;  Q 51.91 264.31 31.82 274.33&#10;  A 1.18 1.17 -54.3 0 1 31.17 274.44&#10;  Q 30.34 274.34 30.45 273.78&#10;  Q 32.47 272.12 34.60 270.64&#10;  Q 48.59 260.87 60.28 254.11&#10;  Q 70.78 248.03 75.16 245.26&#10;  C 82.91 240.35 88.80 236.47 95.51 233.27&#10;  Q 95.71 233.17 95.76 232.80&#10;  L 96.44 232.77&#10;  Z"/>
<path fill="#f4ac33" fill-opacity="0.992" d="&#10;  M 88.38 372.34&#10;  Q 81.69 375.69 74.70 378.07&#10;  Q 68.15 380.30 62.53 380.76&#10;  Q 55.98 381.30 50.03 380.81&#10;  C 30.19 379.16 12.03 365.24 4.46 347.54&#10;  Q 1.86 341.49 0.00 331.74&#10;  L 0.00 318.60&#10;  Q 1.60 311.11 2.14 309.13&#10;  Q 5.64 296.22 15.65 285.90&#10;  C 19.67 281.76 25.49 277.76 30.45 273.78&#10;  Q 30.34 274.34 31.17 274.44&#10;  A 1.18 1.17 -54.3 0 0 31.82 274.33&#10;  Q 51.91 264.31 73.30 271.76&#10;  C 102.37 281.88 117.00 311.12 109.16 340.66&#10;  Q 104.19 359.38 88.36 370.49&#10;  A 0.58 0.57 59.8 0 0 88.17 371.22&#10;  Q 88.41 371.72 88.38 372.34&#10;  Z"/>
<path fill="#f67948" fill-opacity="0.992" d="&#10;  M 386.39 273.68&#10;  Q 398.16 282.14 405.21 291.05&#10;  Q 411.64 299.17 415.21 312.08&#10;  Q 416.06 315.18 416.17 318.01&#10;  C 416.26 320.44 416.90 323.09 416.69 326.01&#10;  Q 416.10 334.45 415.63 336.66&#10;  C 412.12 353.05 401.49 366.87 387.08 374.76&#10;  Q 375.98 380.84 361.76 380.99&#10;  Q 343.71 381.17 328.38 371.60&#10;  Q 311.61 357.95 306.96 340.54&#10;  Q 300.90 317.83 312.13 297.66&#10;  C 322.18 279.61 342.52 268.83 362.73 268.75&#10;  C 370.93 268.71 377.08 270.76 384.97 274.15&#10;  Q 385.99 274.59 386.39 273.68&#10;  Z"/>
<circle fill="#b8c643" fill-opacity="0.992" cx="208.39" cy="406.82" r="56.18"/>
</svg>